<svg id="WKND-icon" xmlns="http://www.w3.org/2000/svg" width="20" height="20" viewBox="0 0 20 20">
  <rect id="background" width="20" height="20" fill="none"/>
  <g id="Dribbble-Light-Preview" transform="translate(-300 -7399)">
    <g id="icons" transform="translate(56 160)">
      <path id="google-_178_" data-name="google-[#178]" d="M263.822,7247h-9.61c0,1,0,3-.006,4h5.569a5.4,5.4,0,0,1-2.039,3.1s0,.006,0,0a6.574,6.574,0,0,1-4.69.872,6.185,6.185,0,0,1-4.612-4.028s.007-.031.01-.033a5.976,5.976,0,0,1,0-3.917h0a6.138,6.138,0,0,1,4.531-3.972,5.831,5.831,0,0,1,5.2,1.4c.194-.19,2.685-2.623,2.872-2.82a10.294,10.294,0,0,0-15.953,2.9h0s0,0-.005.011h0a9.766,9.766,0,0,0,.01,8.964l-.01.008a10.179,10.179,0,0,0,6.48,5.165,10.459,10.459,0,0,0,9.41-2.072l0,0c2.175-1.959,3.529-5.3,2.845-9.586" fill="#202020" fill-rule="evenodd"/>
    </g>
  </g>
</svg>
