<svg xmlns="http://www.w3.org/2000/svg" width="84.816" height="33.6" viewBox="0 0 84.816 33.6">
  <path id="Path_2875" data-name="Path 2875" d="M15.552,43H22.56L26.3,9.4H21.7L18.96,36.088,16.32,9.4H11.232L8.688,35.9,5.856,9.4H.72L4.464,43h7.248l1.92-17.9Zm25.44,0h5.424L39.072,24.376,46.416,9.4h-5.28L34.224,24.04V9.4h-5.28V43h5.28V32.68l1.632-3.072Zm19.1,0H65.52V9.4h-4.7V29.512L55.392,9.4H48.768V43H53.52V18.664Zm9.216,0h8.352c5.28,0,7.872-2.928,7.872-8.3V17.7c0-5.376-2.592-8.3-7.872-8.3H69.312Zm8.256-28.8c1.68,0,2.688.864,2.688,3.264V34.936c0,2.4-1.008,3.264-2.688,3.264H74.592v-24Z" transform="translate(-0.72 -9.4)" fill="#202020"/>
</svg>
